<svg width="150" height="51" viewBox="0 0 150 51" fill="none" xmlns="http://www.w3.org/2000/svg">
<g clip-path="url(#clip0_426_55)">
<path d="M15.1604 15.7425V26.0651H10.1544V0.970215H15.1604V11.1375H17.5147L25.8192 0.970215H32.093L21.5764 13.2201L32.882 26.0651H26.4013L17.4629 15.7425H15.1604Z" fill="white"/>
<path d="M43.8772 11.4739H33.283V15.5615H43.8772V11.4739Z" fill="white"/>
<path d="M54.4455 21.3954H59.7361C65.0267 21.3954 67.5879 18.058 67.5879 13.5306C67.5879 9.00316 65.0267 5.6658 59.7361 5.6658H54.4455V21.4083V21.3954ZM72.8268 13.5306C72.8268 21.0978 67.6268 26.078 59.7878 26.078H49.4395V0.970215H59.7878C67.6268 0.970215 72.8268 5.95038 72.8268 13.5176" fill="white"/>
<path d="M89.5261 8.60218L88.8276 13.246C88.0515 12.9097 86.952 12.6898 85.9948 12.6898C83.8475 12.6898 82.334 14.0221 82.334 16.5963V26.0651H77.6514V8.69273H82.1917V10.5942C83.2912 8.9385 84.9341 8.22705 87.0813 8.22705C88.0903 8.22705 88.8794 8.36934 89.5261 8.60218Z" fill="white"/>
<path d="M93.446 8.69265H98.1286V26.065H93.446V8.69265ZM98.7495 3.01397C98.7495 4.69558 97.4172 5.98913 95.7485 5.98913C94.0798 5.98913 92.7733 4.69558 92.7733 3.01397C92.7733 1.33236 94.0669 0 95.7485 0C97.4301 0 98.7495 1.33236 98.7495 3.01397Z" fill="white"/>
<path d="M108.49 26.065L101.621 8.69263H106.718L111.219 21.1366L115.76 8.69263H120.688L113.897 26.065H108.49Z" fill="white"/>
<path d="M127.454 15.7426H135.15C134.724 13.5047 133.391 12.2629 131.36 12.2629C129.135 12.2629 127.868 13.5694 127.454 15.7426ZM139.846 17.3595C139.846 17.9157 139.807 18.5237 139.756 18.9376H127.441C127.907 21.4471 129.705 22.5337 131.904 22.5337C133.404 22.5337 135.021 21.9387 136.302 20.865L139.044 23.879C137.052 25.69 134.581 26.5178 131.645 26.5178C126.341 26.5178 122.629 22.883 122.629 17.4242C122.629 11.9654 126.212 8.22705 131.412 8.22705C136.612 8.22705 139.859 11.9395 139.859 17.3466" fill="white"/>
<path d="M150 40.9538L148.952 40.6433L146.921 46.4902L144.916 40.6433L143.83 40.9796L146.365 47.6414C145.99 48.4822 145.356 49.2196 144.619 49.8275L145.304 50.4743C146.365 49.7628 147.102 48.6504 147.672 47.0981L150 40.9408V40.9538ZM137.026 47.6285H138.125V42.1438C138.63 41.8593 139.471 41.6005 140.04 41.6005C141.126 41.6005 141.501 42.1309 141.501 43.1916V47.6414H142.588V43.1787C142.588 41.5488 141.851 40.6433 140.324 40.6433C139.548 40.6433 138.643 40.9796 137.996 41.4194L137.815 40.8244H137.026V47.6285ZM131.89 46.8394C131.192 46.8394 130.791 46.4384 130.791 45.714C130.791 44.8215 131.347 44.4075 132.589 44.4075H133.818V46.0504C133.365 46.4902 132.524 46.8265 131.89 46.8265M129.756 45.7528C129.756 46.9817 130.48 47.7061 131.696 47.7061C132.382 47.7061 133.261 47.3956 133.934 46.8524L134.063 47.6156H134.865V43.1269C134.865 41.4065 134.076 40.6304 132.447 40.6304C131.709 40.6304 130.868 40.8632 130.183 41.2513L130.506 42.0145C131.062 41.7558 131.787 41.5617 132.421 41.5617C133.339 41.5617 133.818 41.9886 133.818 43.0752V43.6314H132.447C130.687 43.6314 129.743 44.3558 129.743 45.7528M125.617 41.5488C126.82 41.5488 127.298 42.4025 127.298 44.0454C127.298 45.8046 126.587 46.8524 125.112 46.8524C124.763 46.8524 124.323 46.8135 123.948 46.6713V42.0662C124.362 41.7816 125.035 41.5488 125.617 41.5488ZM125.384 47.7449C127.246 47.7449 128.424 46.2444 128.424 44.0583C128.424 41.8722 127.635 40.6304 125.914 40.6304C125.06 40.6304 124.336 40.9538 123.819 41.3548L123.663 40.8115H122.874V50.2673H123.974V47.5379C124.439 47.7061 124.905 47.7449 125.41 47.7449M111.685 47.6156H112.785V42.118C112.979 42.0015 113.664 41.5876 114.466 41.5876C115.436 41.5876 115.682 42.118 115.682 42.8812V47.6285H116.782V42.1956C117.17 41.8981 117.855 41.6005 118.424 41.6005C119.498 41.6005 119.653 42.1826 119.653 43.0623V47.6414H120.766V42.9588C120.766 41.3806 120.054 40.6563 118.722 40.6563C118.011 40.6563 117.221 40.902 116.523 41.5359C116.187 40.9408 115.605 40.6563 114.777 40.6563C114.22 40.6563 113.444 40.8244 112.694 41.4065L112.513 40.8373H111.724V47.6414L111.685 47.6156ZM106.86 41.5229C108.076 41.5229 108.775 42.4543 108.775 44.2006C108.775 45.9469 108.076 46.8524 106.86 46.8524C105.644 46.8524 104.946 45.9339 104.946 44.2006C104.946 42.4672 105.657 41.5229 106.86 41.5229ZM106.86 40.6174C104.972 40.6174 103.807 41.8981 103.807 44.1876C103.807 46.4772 104.959 47.732 106.86 47.732C108.762 47.732 109.913 46.4643 109.913 44.1876C109.913 41.911 108.762 40.6174 106.86 40.6174ZM102.54 41.1478C101.996 40.8373 101.246 40.6174 100.457 40.6174C98.3356 40.6174 97.2879 42.0274 97.2879 44.1876C97.2879 46.3479 98.3486 47.732 100.392 47.732C101.298 47.732 102.113 47.5121 102.669 47.1757L102.372 46.3737C101.906 46.5936 101.181 46.8006 100.522 46.8006C99.1635 46.8006 98.4262 45.9986 98.4262 44.2264C98.4262 42.3379 99.1894 41.5488 100.496 41.5488C101.065 41.5488 101.712 41.704 102.177 41.9369L102.54 41.1607V41.1478ZM93.7306 40.9279L92.6828 40.6174L90.652 46.4643L88.6469 40.6174L87.5604 40.9538L90.0957 47.6156C89.7206 48.4564 89.0868 49.1937 88.3494 49.8016L89.0221 50.4484C90.0828 49.737 90.8201 48.6245 91.3893 47.0723L93.7306 40.915V40.9279ZM82.3732 41.6523H83.4986V45.2613C83.4986 46.9558 84.0548 47.732 85.3225 47.732C85.9822 47.732 86.6937 47.525 87.0041 47.331L86.7454 46.5419C86.4479 46.6454 85.9822 46.7618 85.5554 46.7618C84.8827 46.7618 84.5852 46.3608 84.5852 45.1966V41.6523H86.7454V40.7985H84.5852V39.0523L83.4857 39.298V40.7985L82.3603 40.9538V41.6523H82.3732ZM80.3682 39.3239L81.2867 38.3925L80.3682 37.4741L79.4627 38.3925L80.3682 39.3239ZM79.8249 47.6026H80.9115V40.7985H79.8249V47.6026ZM77.6 37.6035L76.5005 37.8493V47.6026H77.6V37.6035ZM73.7194 39.3239L74.6378 38.3925L73.7194 37.4741L72.8139 38.3925L73.7194 39.3239ZM73.1761 47.6026H74.2627V40.7985H73.1761V47.6026ZM68.4805 41.5359C69.7094 41.5359 70.2139 42.3508 70.2139 43.9936C70.2139 45.9339 69.3731 46.8524 67.976 46.8524C67.7044 46.8524 67.2775 46.8265 66.8636 46.723V42.0145C67.2904 41.717 67.9372 41.5359 68.4805 41.5359ZM68.1183 47.732C70.1363 47.732 71.3393 46.3479 71.3393 43.9936C71.3393 41.8334 70.4596 40.6174 68.778 40.6174C68.0924 40.6174 67.3939 40.8374 66.8636 41.2254V37.6035L65.7641 37.8493V47.318C66.3074 47.5638 67.1482 47.732 68.1054 47.732M60.9391 41.51C62.1551 41.51 62.8536 42.4414 62.8536 44.1876C62.8536 45.9339 62.1421 46.8394 60.9391 46.8394C59.7361 46.8394 59.0247 45.921 59.0247 44.1876C59.0247 42.4543 59.7232 41.51 60.9391 41.51ZM60.9391 40.6045C59.0505 40.6045 57.8863 41.8851 57.8863 44.1747C57.8863 46.4643 59.0376 47.719 60.9391 47.719C62.8406 47.719 63.9919 46.4514 63.9919 44.1747C63.9919 41.8981 62.8406 40.6045 60.9391 40.6045ZM47.0852 47.5897H48.1847V42.0921C48.3788 41.9757 49.0643 41.5617 49.8663 41.5617C50.8365 41.5617 51.0823 42.0921 51.0823 42.8553V47.6026H52.1818V42.1697C52.5699 41.8722 53.2554 41.5747 53.8246 41.5747C54.8982 41.5747 55.0535 42.1568 55.0535 43.0364V47.6156H56.1659V42.9329C56.1659 41.3548 55.4545 40.6304 54.1221 40.6304C53.3977 40.6304 52.6216 40.8762 51.9231 41.51C51.5868 40.915 51.0047 40.6304 50.1768 40.6304C49.6206 40.6304 48.8444 40.7985 48.0942 41.3806L47.9131 40.8115H47.124V47.6156L47.0852 47.5897ZM39.6602 41.4971C40.8762 41.4971 41.5747 42.4284 41.5747 44.1747C41.5747 45.921 40.8762 46.8265 39.6602 46.8265C38.4443 46.8265 37.7458 45.9081 37.7458 44.1747C37.7458 42.4414 38.4443 41.4971 39.6602 41.4971ZM39.6602 40.5916C37.7716 40.5916 36.6075 41.8722 36.6075 44.1618C36.6075 46.4514 37.7587 47.7061 39.6602 47.7061C41.5617 47.7061 42.713 46.4384 42.713 44.1618C42.713 41.8851 41.5617 40.5916 39.6602 40.5916ZM31.8601 46.8006C31.1487 46.8006 30.7606 46.3996 30.7606 45.6752C30.7606 44.7827 31.3168 44.3687 32.5586 44.3687H33.7875V46.0115C33.3348 46.4514 32.494 46.7877 31.8601 46.7877M29.7258 45.714C29.7258 46.9429 30.4502 47.6673 31.6661 47.6673C32.3517 47.6673 33.2313 47.3568 33.9039 46.8135L34.0333 47.5767H34.8353V43.0881C34.8353 41.3677 34.0333 40.5916 32.4164 40.5916C31.679 40.5916 30.8382 40.8244 30.1526 41.2125L30.476 41.9757C31.0323 41.717 31.7566 41.5229 32.3905 41.5229C33.3089 41.5229 33.7875 41.9498 33.7875 43.0364V43.5926H32.4164C30.6571 43.5926 29.7128 44.317 29.7128 45.714M24.5386 37.5647L23.4391 37.8104V47.5638H24.5386V37.5647ZM25.0172 44.0065L28.0571 47.7449L28.9108 47.0723L26.2979 43.9548L28.5486 41.1349L27.6949 40.501L25.0043 44.0065H25.0172ZM18.3037 46.7877C17.5923 46.7877 17.2042 46.3867 17.2042 45.6623C17.2042 44.7697 17.7604 44.3558 19.0022 44.3558H20.2311V45.9986C19.7784 46.4384 18.9376 46.7747 18.3037 46.7747M16.1694 45.7011C16.1694 46.93 16.8938 47.6544 18.1097 47.6544C18.7953 47.6544 19.6749 47.3439 20.3475 46.8006L20.4769 47.5638H21.2918V43.0752C21.2918 41.3548 20.4898 40.5786 18.86 40.5786C18.1226 40.5786 17.2818 40.8115 16.5962 41.1995L16.9196 41.9627C17.4759 41.704 18.2002 41.51 18.8341 41.51C19.7525 41.51 20.2311 41.9369 20.2311 43.0234V43.5797H18.86C17.1007 43.5797 16.1564 44.3041 16.1564 45.7011M10.9822 37.5517L9.88272 37.7975V47.5509H10.9822V37.5517ZM11.4608 43.9936L14.5007 47.732L15.3544 47.0593L12.7415 43.9419L14.9922 41.1219L14.1385 40.4881L11.4479 43.9936H11.4608ZM2.13436 46.7747C1.43584 46.7747 1.04778 46.3737 1.04778 45.6494C1.04778 44.7568 1.604 44.3429 2.84581 44.3429H4.07468V45.9857C3.62194 46.4255 2.78113 46.7618 2.14729 46.7618M0.0129355 45.6882C0.0129355 46.917 0.737323 47.6414 1.95326 47.6414C2.63884 47.6414 3.51845 47.331 4.1911 46.7877L4.32046 47.5509H5.12246V43.0623C5.12246 41.3418 4.33339 40.5657 2.70352 40.5657C1.9662 40.5657 1.12539 40.7985 0.439807 41.1866L0.763194 41.9498C1.31942 41.6911 2.04381 41.4971 2.67765 41.4971C3.59607 41.4971 4.07468 41.9239 4.07468 43.0105V43.5667H2.70352C0.944291 43.5667 0 44.2911 0 45.6882" fill="white"/>
</g>
<defs>
<clipPath id="clip0_426_55">
<rect width="150" height="50.4872" fill="white"/>
</clipPath>
</defs>
</svg>
